<?xml version="1.0" encoding="UTF-8"?>
<svg width="464px" height="126px" viewBox="0 0 464 126" version="1.1" xmlns="http://www.w3.org/2000/svg" xmlns:xlink="http://www.w3.org/1999/xlink">
    <!-- Generator: Sketch 47.1 (45422) - http://www.bohemiancoding.com/sketch -->
    <title>Artboard</title>
    <desc>Created with Sketch.</desc>
    <defs></defs>
    <g id="Page-1" stroke="none" stroke-width="1" fill="none" fill-rule="evenodd">
        <g id="genesis_logo_4bright" transform="translate(-148.000000, -93.000000)">
            <rect id="Rectangle-path" x="0.99735556" y="0.0018738" width="757.550467" height="320.141169"></rect>
            <g id="Group" transform="translate(148.641671, 95.027219)" stroke="#282828" stroke-width="1.00225161" fill="#2C2C2C" fill-rule="nonzero">
                <path d="M65.0999965,27.2149983 L62.2199966,27.2149983 C61.2099967,27.2149983 60.6399967,27.7909982 60.6399967,28.6549982 L60.4899967,41.9029973 C56.169997,33.2629979 46.6699975,25.7749984 32.5599982,25.7749984 C14.5599992,25.7749984 0.589999968,40.4629974 0.589999968,60.1909961 C0.589999968,79.9189949 14.6999992,94.6069939 32.6999982,94.6069939 C45.9499975,94.6069939 55.019997,87.9829944 59.9199968,79.4869949 L59.9199968,90.7189942 C59.9199968,105.262993 50.1299973,116.782993 32.1299983,116.782993 C20.6099989,116.782993 13.4099993,113.038993 8.79999952,110.158993 C7.78999958,109.582993 7.06999962,109.726993 6.48999965,110.590993 L4.90999973,113.182993 C4.32999977,114.046993 4.47999976,114.910993 5.4899997,115.486993 C10.9599994,118.942992 18.879999,122.686992 32.4099982,122.686992 C54.729997,122.686992 66.6899964,108.430993 66.6899964,89.9989942 L66.6899964,28.6549982 C66.6899964,27.7909982 66.1099964,27.2149983 65.0999965,27.2149983 Z M33.5699982,88.4149943 C19.309999,88.4149943 7.20999961,76.4629951 7.20999961,60.1909961 C7.20999961,43.9189972 19.309999,31.966998 33.5699982,31.966998 C49.4099973,31.966998 60.2099967,43.9189972 60.2099967,60.1909961 C60.2099967,76.6069951 49.4099973,88.4149943 33.5699982,88.4149943 Z" id="Shape"></path>
                <path d="M148.329992,57.8869963 C148.329992,38.5909975 135.809993,25.7749984 118.379994,25.7749984 C98.6499947,25.7749984 85.4099954,40.7509974 85.4099954,60.1909961 C85.4099954,80.2069949 99.8099946,94.6069939 120.109994,94.6069939 C131.049993,94.6069939 138.249993,91.1509942 143.729992,87.1189944 C144.449992,86.3989945 144.589992,85.6789945 144.009992,84.8149946 L142.429992,82.3669947 C141.999992,81.5029948 141.129992,81.5029948 140.269992,82.2229947 C135.369993,85.9669945 129.469993,88.7029943 120.539993,88.7029943 C104.699994,88.7029943 92.889995,77.758995 92.029995,62.206996 L146.609992,62.206996 C147.469992,62.206996 148.329992,61.6309961 148.329992,60.6229961 L148.329992,57.8869963 Z M118.529994,31.678998 C131.339993,31.678998 141.279992,41.0389974 141.849992,55.7269964 L141.849992,56.4469964 L92.169995,56.4469964 C93.6099949,41.9029973 104.129994,31.678998 118.529994,31.678998 Z" id="Shape"></path>
                <path d="M197.729989,25.7749984 C184.61999,25.7749984 175.549991,33.2629979 172.239991,41.4709973 L171.949991,28.6549982 C171.949991,27.7909982 171.089991,27.0709983 170.219991,27.0709983 L167.769991,27.0709983 C166.909991,27.0709983 166.329991,27.6469982 166.329991,28.6549982 L166.329991,91.7269941 C166.329991,92.7349941 166.909991,93.310994 167.769991,93.310994 L171.519991,93.310994 C172.379991,93.310994 172.959991,92.7349941 172.959991,91.7269941 L173.099991,52.7029966 C174.109991,43.3429972 181.73999,31.966998 196.719989,31.966998 C210.399989,31.822998 219.609988,41.9029973 219.609988,57.3109963 L219.609988,91.7269941 C219.609988,92.7349941 220.189988,93.310994 221.049988,93.310994 L224.649988,93.310994 C225.659988,93.310994 226.239988,92.7349941 226.239988,91.7269941 L226.239988,56.5909964 C226.239988,38.0149976 214.859988,25.7749984 197.729989,25.7749984 Z" id="Shape"></path>
                <path d="M306.729983,57.8869963 C306.729983,38.5909975 294.209984,25.7749984 276.779985,25.7749984 C257.049986,25.7749984 243.809987,40.7509974 243.809987,60.1909961 C243.809987,80.2069949 258.209986,94.6069939 278.509985,94.6069939 C289.449984,94.6069939 296.649984,91.1509942 302.129984,87.1189944 C302.849984,86.3989945 302.989984,85.6789945 302.409984,84.8149946 L300.829984,82.3669947 C300.399984,81.5029948 299.529984,81.5029948 298.669984,82.2229947 C293.769984,85.9669945 287.869984,88.7029943 278.939985,88.7029943 C263.099986,88.7029943 251.289986,77.758995 250.429986,62.206996 L305.009984,62.206996 C305.869983,62.206996 306.729983,61.6309961 306.729983,60.6229961 L306.729983,57.8869963 Z M276.929985,31.678998 C289.739984,31.678998 299.679984,41.0389974 300.249984,55.7269964 L300.249984,56.4469964 L250.569986,56.4469964 C252.009986,41.9029973 262.529986,31.678998 276.929985,31.678998 Z" id="Shape"></path>
                <path d="M344.029981,94.6069939 C358.859981,94.6069939 368.79998,87.2629944 368.79998,76.1749951 C368.79998,65.3749958 363.75998,60.0469962 346.619981,56.0149964 C332.799982,52.8469966 328.189982,49.6789968 328.189982,43.1989972 C328.189982,35.9989977 334.809982,31.822998 344.029981,31.822998 C350.939981,31.822998 356.849981,33.4069979 362.45998,36.8629976 C363.32998,37.2949976 364.04998,37.2949976 364.61998,36.4309977 L366.20998,33.6949978 C366.77998,32.8309979 366.48998,32.1109979 365.62998,31.534998 C361.59998,29.0869981 354.829981,25.9189983 344.459981,25.9189983 C330.779982,25.9189983 321.419983,32.9749979 321.419983,43.4869972 C321.419983,53.8549966 329.049982,58.7509962 344.169981,62.206996 C358.289981,65.3749958 362.16998,68.9749956 362.16998,76.3189951 C362.16998,83.9509946 355.119981,88.7029943 344.029981,88.7029943 C335.679982,88.7029943 328.769982,86.2549945 323.579982,82.6549947 C322.719983,81.9349948 321.849983,82.0789947 321.419983,82.9429947 L319.549983,85.8229945 C319.119983,86.6869945 319.119983,87.4069944 320.129983,87.8389944 C326.749982,92.0149941 334.529982,94.6069939 344.029981,94.6069939 Z" id="Shape"></path>
                <path d="M390.399979,12.2389992 C393.999979,12.2389992 396.729979,9.79099937 396.729979,6.1909996 C396.729979,2.59099983 393.999979,0.142999991 390.399979,0.142999991 C386.939979,0.142999991 384.349979,2.59099983 384.349979,6.1909996 C384.349979,9.79099937 386.939979,12.2389992 390.399979,12.2389992 Z M388.669979,93.310994 L392.409979,93.310994 C393.279979,93.310994 393.849979,92.7349941 393.849979,91.7269941 L393.849979,28.6549982 C393.849979,27.6469982 393.279979,27.0709983 392.409979,27.0709983 L388.809979,27.0709983 C387.809979,27.0709983 387.229979,27.6469982 387.229979,28.6549982 L387.089979,91.7269941 C387.089979,92.7349941 387.659979,93.310994 388.669979,93.310994 Z" id="Shape"></path>
                <path d="M436.909976,94.6069939 C451.739976,94.6069939 461.679975,87.2629944 461.679975,76.1749951 C461.679975,65.3749958 456.639975,60.0469962 439.499976,56.0149964 C425.679977,52.8469966 421.069977,49.6789968 421.069977,43.1989972 C421.069977,35.9989977 427.689977,31.822998 436.909976,31.822998 C443.819976,31.822998 449.729976,33.4069979 455.339975,36.8629976 C456.209975,37.2949976 456.929975,37.2949976 457.499975,36.4309977 L459.089975,33.6949978 C459.659975,32.8309979 459.369975,32.1109979 458.509975,31.534998 C454.479975,29.0869981 447.709976,25.9189983 437.339976,25.9189983 C423.659977,25.9189983 414.299978,32.9749979 414.299978,43.4869972 C414.299978,53.8549966 421.929977,58.7509962 437.049976,62.206996 C451.169976,65.3749958 455.049975,68.9749956 455.049975,76.3189951 C455.049975,83.9509946 447.999976,88.7029943 436.909976,88.7029943 C428.559977,88.7029943 421.649977,86.2549945 416.459977,82.6549947 C415.599978,81.9349948 414.729978,82.0789947 414.299978,82.9429947 L412.429978,85.8229945 C411.999978,86.6869945 411.999978,87.4069944 413.009978,87.8389944 C419.629977,92.0149941 427.409977,94.6069939 436.909976,94.6069939 Z" id="Shape"></path>
            </g>
        </g>
        <g id="Artboard"></g>
    </g>
</svg>