<?xml version="1.0" encoding="UTF-8"?>
<svg width="464px" height="126px" viewBox="0 0 464 126" version="1.1" xmlns="http://www.w3.org/2000/svg" xmlns:xlink="http://www.w3.org/1999/xlink">
    <!-- Generator: Sketch 47.1 (45422) - http://www.bohemiancoding.com/sketch -->
    <title>Artboard</title>
    <desc>Created with Sketch.</desc>
    <defs></defs>
    <g id="Page-1" stroke="none" stroke-width="1" fill="none" fill-rule="evenodd">
        <g id="genesis_logo_4dark" transform="translate(-148.000000, -93.000000)">
            <rect id="Rectangle-path" x="0.99735556" y="0.0018738" width="757.550467" height="320.141169"></rect>
            <g id="Group" transform="translate(148.257923, 94.517430)" fill-rule="nonzero" fill="#FFFFFF">
                <g transform="translate(0.383748, 25.509788)" id="Shape">
                    <path d="M65.0999965,2.21499986 L62.2199966,2.21499986 C61.2099967,2.21499986 60.6399967,2.79099982 60.6399967,3.65499977 L60.4899967,16.9029989 C56.169997,8.26299947 46.6699975,0.77499995 32.5599982,0.77499995 C14.5599992,0.77499995 0.589999968,15.462999 0.589999968,35.1909977 C0.589999968,54.9189965 14.6999992,69.6069955 32.6999982,69.6069955 C45.9499975,69.6069955 55.019997,62.982996 59.9199968,54.4869965 L59.9199968,65.7189958 C59.9199968,80.2629949 50.1299973,91.7829941 32.1299983,91.7829941 C20.6099989,91.7829941 13.4099993,88.0389944 8.79999952,85.1589945 C7.78999958,84.5829946 7.06999962,84.7269946 6.48999965,85.5909945 L4.90999973,88.1829944 C4.32999977,89.0469943 4.47999976,89.9109942 5.4899997,90.4869942 C10.9599994,93.942994 18.879999,97.6869937 32.4099982,97.6869937 C54.729997,97.6869937 66.6899964,83.4309947 66.6899964,64.9989958 L66.6899964,3.65499977 C66.6899964,2.79099982 66.1099964,2.21499986 65.0999965,2.21499986 Z M33.5699982,63.4149959 C19.309999,63.4149959 7.20999961,51.4629967 7.20999961,35.1909977 C7.20999961,18.9189988 19.309999,6.96699955 33.5699982,6.96699955 C49.4099973,6.96699955 60.2099967,18.9189988 60.2099967,35.1909977 C60.2099967,51.6069967 49.4099973,63.4149959 33.5699982,63.4149959 Z"></path>
                </g>
                <g transform="translate(85.383744, 25.509788)" id="Shape">
                    <path d="M63.3299966,32.8869979 C63.3299966,13.5909991 50.8099973,0.77499995 33.3799982,0.77499995 C13.6499993,0.77499995 0.409999978,15.750999 0.409999978,35.1909977 C0.409999978,55.2069965 14.8099992,69.6069955 35.1099981,69.6069955 C46.0499975,69.6069955 53.2499971,66.1509958 58.7299968,62.118996 C59.4499968,61.3989961 59.5899968,60.6789961 59.0099968,59.8149962 L57.4299969,57.3669963 C56.9999969,56.5029964 56.129997,56.5029964 55.269997,57.2229963 C50.3699973,60.9669961 44.4699976,63.7029959 35.5399981,63.7029959 C19.6999989,63.7029959 7.88999957,52.7589966 7.02999962,37.2069976 L61.6099967,37.2069976 C62.4699966,37.2069976 63.3299966,36.6309977 63.3299966,35.6229977 L63.3299966,32.8869979 Z M33.5299982,6.67899957 C46.3399975,6.67899957 56.279997,16.038999 56.8499969,30.726998 L56.8499969,31.446998 L7.16999961,31.446998 C8.60999953,16.9029989 19.129999,6.67899957 33.5299982,6.67899957 Z"></path>
                </g>
                <g transform="translate(166.383739, 25.509788)" id="Shape">
                    <path d="M31.7299983,0.77499995 C18.619999,0.77499995 9.54999948,8.26299947 6.23999966,16.4709989 L5.94999968,3.65499977 C5.94999968,2.79099982 5.08999972,2.07099987 4.21999977,2.07099987 L1.7699999,2.07099987 C0.909999951,2.07099987 0.329999982,2.64699983 0.329999982,3.65499977 L0.329999982,66.7269957 C0.329999982,67.7349957 0.909999951,68.3109956 1.7699999,68.3109956 L5.5199997,68.3109956 C6.37999965,68.3109956 6.95999962,67.7349957 6.95999962,66.7269957 L7.09999962,27.7029982 C8.10999956,18.3429988 15.7399991,6.96699955 30.7199983,6.96699955 C44.3999976,6.82299956 53.6099971,16.9029989 53.6099971,32.3109979 L53.6099971,66.7269957 C53.6099971,67.7349957 54.1899971,68.3109956 55.049997,68.3109956 L58.6499968,68.3109956 C59.6599968,68.3109956 60.2399967,67.7349957 60.2399967,66.7269957 L60.2399967,31.590998 C60.2399967,13.0149992 48.8599974,0.77499995 31.7299983,0.77499995 Z"></path>
                </g>
                <g transform="translate(243.383735, 25.509788)" id="Shape">
                    <path d="M63.7299966,32.8869979 C63.7299966,13.5909991 51.2099972,0.77499995 33.7799982,0.77499995 C14.0499992,0.77499995 0.809999956,15.750999 0.809999956,35.1909977 C0.809999956,55.2069965 15.2099992,69.6069955 35.5099981,69.6069955 C46.4499975,69.6069955 53.6499971,66.1509958 59.1299968,62.118996 C59.8499968,61.3989961 59.9899968,60.6789961 59.4099968,59.8149962 L57.8299969,57.3669963 C57.3999969,56.5029964 56.5299969,56.5029964 55.669997,57.2229963 C50.7699973,60.9669961 44.8699976,63.7029959 35.9399981,63.7029959 C20.0999989,63.7029959 8.28999955,52.7589966 7.4299996,37.2069976 L62.0099966,37.2069976 C62.8699966,37.2069976 63.7299966,36.6309977 63.7299966,35.6229977 L63.7299966,32.8869979 Z M33.9299982,6.67899957 C46.7399975,6.67899957 56.6799969,16.038999 57.2499969,30.726998 L57.2499969,31.446998 L7.56999959,31.446998 C9.00999951,16.9029989 19.5299989,6.67899957 33.9299982,6.67899957 Z"></path>
                </g>
                <g transform="translate(319.383731, 25.509788)" id="Shape">
                    <path d="M25.0299986,69.6069955 C39.8599978,69.6069955 49.7999973,62.262996 49.7999973,51.1749967 C49.7999973,40.3749974 44.7599976,35.0469978 27.6199985,31.014998 C13.7999993,27.8469982 9.1899995,24.6789984 9.1899995,18.1989988 C9.1899995,10.9989993 15.8099991,6.82299956 25.0299986,6.82299956 C31.9399983,6.82299956 37.849998,8.40699946 43.4599976,11.8629992 C44.3299976,12.2949992 45.0499976,12.2949992 45.6199975,11.4309993 L47.2099974,8.69499944 C47.7799974,7.8309995 47.4899974,7.11099954 46.6299975,6.53499958 C42.5999977,4.08699974 35.8299981,0.918999941 25.4599986,0.918999941 C11.7799994,0.918999941 2.41999987,7.97499949 2.41999987,18.4869988 C2.41999987,28.8549982 10.0499995,33.7509978 25.1699986,37.2069976 C39.2899979,40.3749974 43.1699977,43.9749972 43.1699977,51.3189967 C43.1699977,58.9509962 36.119998,63.7029959 25.0299986,63.7029959 C16.6799991,63.7029959 9.76999947,61.2549961 4.57999975,57.6549963 C3.7199998,56.9349964 2.84999985,57.0789963 2.41999987,57.9429963 L0.54999997,60.8229961 C0.119999994,61.6869961 0.119999994,62.406996 1.12999994,62.838996 C7.74999958,67.0149957 15.5299992,69.6069955 25.0299986,69.6069955 Z"></path>
                </g>
                <g transform="translate(384.383727, 0.509789)" id="Shape">
                    <path d="M6.39999965,12.2389992 C9.99999946,12.2389992 12.7299993,9.79099937 12.7299993,6.1909996 C12.7299993,2.59099983 9.99999946,0.142999991 6.39999965,0.142999991 C2.93999984,0.142999991 0.349999981,2.59099983 0.349999981,6.1909996 C0.349999981,9.79099937 2.93999984,12.2389992 6.39999965,12.2389992 Z M4.66999975,93.310994 L8.40999955,93.310994 C9.2799995,93.310994 9.84999947,92.7349941 9.84999947,91.7269941 L9.84999947,28.6549982 C9.84999947,27.6469982 9.2799995,27.0709983 8.40999955,27.0709983 L4.80999974,27.0709983 C3.80999979,27.0709983 3.22999983,27.6469982 3.22999983,28.6549982 L3.08999983,91.7269941 C3.08999983,92.7349941 3.6599998,93.310994 4.66999975,93.310994 Z"></path>
                </g>
                <g transform="translate(412.383726, 25.509788)" id="Shape">
                    <path d="M24.9099987,69.6069955 C39.7399979,69.6069955 49.6799973,62.262996 49.6799973,51.1749967 C49.6799973,40.3749974 44.6399976,35.0469978 27.4999985,31.014998 C13.6799993,27.8469982 9.06999951,24.6789984 9.06999951,18.1989988 C9.06999951,10.9989993 15.6899992,6.82299956 24.9099987,6.82299956 C31.8199983,6.82299956 37.729998,8.40699946 43.3399977,11.8629992 C44.2099976,12.2949992 44.9299976,12.2949992 45.4999975,11.4309993 L47.0899975,8.69499944 C47.6599974,7.8309995 47.3699974,7.11099954 46.5099975,6.53499958 C42.4799977,4.08699974 35.7099981,0.918999941 25.3399986,0.918999941 C11.6599994,0.918999941 2.29999988,7.97499949 2.29999988,18.4869988 C2.29999988,28.8549982 9.92999946,33.7509978 25.0499986,37.2069976 C39.1699979,40.3749974 43.0499977,43.9749972 43.0499977,51.3189967 C43.0499977,58.9509962 35.9999981,63.7029959 24.9099987,63.7029959 C16.5599991,63.7029959 9.64999948,61.2549961 4.45999976,57.6549963 C3.59999981,56.9349964 2.72999985,57.0789963 2.29999988,57.9429963 L0.429999977,60.8229961 C1.19348975e-15,61.6869961 1.19348975e-15,62.406996 1.00999995,62.838996 C7.62999959,67.0149957 15.4099992,69.6069955 24.9099987,69.6069955 Z"></path>
                </g>
            </g>
        </g>
        <g id="Artboard"></g>
    </g>
</svg>